# xmcd CD database file
#
# Track frame offsets:
#	150
#	20397
#	29257
#	38932
#	51442
#	70492
#	83550
#	93670
#	103687
#	114680
#	127320
#	131200
#	149172
#	159312
#	185297
#	198865
#	210605
#	225432
#	237972
#	251172
#	260725
#	272905
#	285615
#	297705
#	309727
#
# Disc length: 4315 seconds
#
# Revision: 19
# Processed by: cddbd v1.5.2PL0 Copyright (c) Steve Scherf et al.
# Submitted via: CDex 1.51
#
DISCID=8e10d919
DTITLE=Various Artist - Country Gold Vol.3
DYEAR=1996
DGENRE=Country
TTITLE0=Gram Parsons and Emmylou Harris - Love Hurts
TTITLE1=Sandy Posey - Born A Woman
TTITLE2=Dave Dudley - Cowboy Boots
TTITLE3=Freddy Fender - Silver Wings
TTITLE4=Dave Travis - Sweet Country Music
TTITLE5=Donna Fargo - Daddy
TTITLE6=Barbara Mandrell - Kaw-Liga (Live)
TTITLE7=Buck Owens - Rhythm And Booze
TTITLE8=Carl Perkins - Dixie Friend
TTITLE9=Kitty Wells - Making Believe
TTITLE10=Charley Pride - San Antone
TTITLE11=Rick Nelson - Garden Party
TTITLE12=B. J. Thomas - Walking Back
TTITLE13=Brenda Lee - Medley (Live)
TTITLE14=Freddy Fender - Baby I Want To Love You
TTITLE15=Don David Jr. - Country Kings
TTITLE16=Billie Jo Spears - Crystal Chandeliers
TTITLE17=Johnny Paycheck - Georgia In A Jug
TTITLE18=Roy Acuff - Tennessee Waltz
TTITLE19=Ned Miller - From A Jack To A King
TTITLE20=Loretta Lynn - Blue Kentucky Girl
TTITLE21=Frankie Laine - Moonlight Gambler
TTITLE22=Billie Jo Spears - Look What They Have Done To My Song Ma
TTITLE23=Hank Locklin - Queen Of Heart
TTITLE24=Johnny Paycheck - To Give My Love To
EXTD=YEAR: 1996
EXTT0=
EXTT1=
EXTT2=
EXTT3=
EXTT4=
EXTT5=
EXTT6=
EXTT7=
EXTT8=
EXTT9=
EXTT10=
EXTT11=
EXTT12=
EXTT13=
EXTT14=
EXTT15=
EXTT16=
EXTT17=
EXTT18=
EXTT19=
EXTT20=
EXTT21=
EXTT22=
EXTT23=
EXTT24=
PLAYORDER=
